<svg id="Capa_1" enable-background="new 0 0 512 512" height="512" viewBox="0 0 512 512" width="512" xmlns="http://www.w3.org/2000/svg"><g><path d="m300.711 474.054 8.622-58.053-8.622-54.501h-44.948l-10.43 65.166 10.43 47.388z" fill="#fc5c51"/><path d="m200.175 323.553h-72.204v52.962c0 16.286 6.957 30.979 18.053 41.262-11.096 10.283-18.053 24.976-18.053 41.262v52.961h72.204c24.313 0 45.49-15.836 53.174-37.946h2.415v-112.554h-2.415c-7.684-22.11-28.861-37.947-53.174-37.947z" fill="#fc6d5a"/><path d="m248.072 267.671h-114.237c-73.797 0-133.835-60.039-133.835-133.836s60.038-133.835 133.835-133.835h122.165v30h-122.165c-57.255 0-103.835 46.58-103.835 103.835s46.58 103.835 103.835 103.835h114.237z" fill="#fdb69c"/><path d="m298.942 292.489h56.588v30h-56.588z" fill="#fc6d5a"/><g><path d="m507.5 242c0-4.91-1.911-13.251-3.203-17.924-.199-.685-.405-1.367-.611-2.049-.049-.154-.092-.311-.143-.464l.004-.001c-24.429-80.177-99.073-138.679-187.133-138.679h-42.081v168.873h21.58c30.257 0 54.873 24.616 54.873 54.873 0 28.64-22.057 52.423-50.075 54.862v112.564h15.703c101.096 0 184.522-77.099 194.571-175.586l-7.442-12.8c0-.002 3.957-13.898 3.957-43.669z" fill="#d64344"/><path d="m503.686 222.027c-.047-.155-.092-.311-.139-.466l-.004.001c.051.155.094.311.143.465z" fill="#fdcf73"/><path d="m504.297 224.076c1.292 4.673 1.952 9.512 1.952 14.422 0 29.771-24.221 53.991-53.991 53.991v30c22.841 0 43.571-9.177 58.727-24.022.671-6.577 1.015-13.249 1.015-19.999 0-18.868-2.694-37.117-7.703-54.392z" fill="#fc6d5a"/></g><path d="m277.076 267.671c50.946 0 92.393-41.448 92.393-92.394s-41.447-92.394-92.393-92.394h-21.312l-10.43 97.451 10.43 87.337z" fill="#fc5c51"/><path d="m86.088 132.93c0 74.296 60.444 134.741 134.74 134.741h34.935v-184.789h-169.675z" fill="#fc6d5a"/><path d="m175.509 142.532h30v30h-30z" fill="#474f54"/></g></svg>